<mxfile host="65bd71144e">
    <diagram id="fI8bB1fWbCYDi5huAons" name="Page-1">
        <mxGraphModel dx="644" dy="455" grid="1" gridSize="10" guides="1" tooltips="1" connect="1" arrows="1" fold="1" page="1" pageScale="1" pageWidth="850" pageHeight="1100" math="0" shadow="0">
            <root>
                <mxCell id="0"/>
                <mxCell id="1" parent="0"/>
                <mxCell id="65" value="S23" style="swimlane;startSize=20;horizontal=1;childLayout=treeLayout;horizontalTree=0;resizable=0;containerType=tree;fontSize=12;" parent="1" vertex="1">
                    <mxGeometry x="20" y="20" width="1309" height="696" as="geometry"/>
                </mxCell>
                <mxCell id="66" value="S23폴더" style="whiteSpace=wrap;html=1;" parent="65" vertex="1">
                    <mxGeometry x="545.799" y="40" width="100" height="40" as="geometry"/>
                </mxCell>
                <mxCell id="67" value="&lt;span style=&quot;text-align: left;&quot;&gt;index.html(메인)&lt;/span&gt;" style="whiteSpace=wrap;html=1;" parent="65" vertex="1">
                    <mxGeometry x="20" y="130" width="100" height="40" as="geometry"/>
                </mxCell>
                <mxCell id="68" value="" style="edgeStyle=elbowEdgeStyle;elbow=vertical;html=1;rounded=1;curved=0;sourcePerimeterSpacing=0;targetPerimeterSpacing=0;startSize=6;endSize=6;" parent="65" source="66" target="67" edge="1">
                    <mxGeometry relative="1" as="geometry"/>
                </mxCell>
                <mxCell id="69" value="&lt;span style=&quot;text-align: left;&quot;&gt;fragments폴더&lt;/span&gt;" style="whiteSpace=wrap;html=1;" parent="65" vertex="1">
                    <mxGeometry x="273.488" y="130" width="100" height="40" as="geometry"/>
                </mxCell>
                <mxCell id="70" value="" style="edgeStyle=elbowEdgeStyle;elbow=vertical;html=1;rounded=1;curved=0;sourcePerimeterSpacing=0;targetPerimeterSpacing=0;startSize=6;endSize=6;" parent="65" source="66" target="69" edge="1">
                    <mxGeometry relative="1" as="geometry"/>
                </mxCell>
                <mxCell id="71" value="" style="edgeStyle=elbowEdgeStyle;elbow=vertical;html=1;rounded=1;curved=0;sourcePerimeterSpacing=0;targetPerimeterSpacing=0;startSize=6;endSize=6;" parent="65" source="66" target="72" edge="1">
                    <mxGeometry relative="1" as="geometry">
                        <mxPoint x="-2822.4760000000006" y="130" as="sourcePoint"/>
                    </mxGeometry>
                </mxCell>
                <mxCell id="72" value="&lt;span style=&quot;text-align: left;&quot;&gt;layout폴더&lt;/span&gt;" style="whiteSpace=wrap;html=1;" parent="65" vertex="1">
                    <mxGeometry x="684.598" y="130" width="100" height="40" as="geometry"/>
                </mxCell>
                <mxCell id="73" value="" style="edgeStyle=elbowEdgeStyle;elbow=vertical;html=1;rounded=1;curved=0;sourcePerimeterSpacing=0;targetPerimeterSpacing=0;startSize=6;endSize=6;" parent="65" source="66" target="74" edge="1">
                    <mxGeometry relative="1" as="geometry">
                        <mxPoint x="-2832.4760000000006" y="130" as="sourcePoint"/>
                    </mxGeometry>
                </mxCell>
                <mxCell id="74" value="&lt;span style=&quot;text-align: left;&quot;&gt;store폴더&lt;/span&gt;" style="whiteSpace=wrap;html=1;" parent="65" vertex="1">
                    <mxGeometry x="1071.598" y="130" width="100" height="40" as="geometry"/>
                </mxCell>
                <mxCell id="77" value="" style="edgeStyle=elbowEdgeStyle;elbow=vertical;html=1;rounded=1;curved=0;sourcePerimeterSpacing=0;targetPerimeterSpacing=0;startSize=6;endSize=6;" parent="65" source="69" target="78" edge="1">
                    <mxGeometry relative="1" as="geometry">
                        <mxPoint x="-2692.4760000000006" y="220" as="sourcePoint"/>
                    </mxGeometry>
                </mxCell>
                <mxCell id="78" value="&lt;div style=&quot;text-align: left;&quot;&gt;common&lt;/div&gt;" style="whiteSpace=wrap;html=1;" parent="65" vertex="1">
                    <mxGeometry x="131.628" y="220" width="100" height="40" as="geometry"/>
                </mxCell>
                <mxCell id="79" value="" style="edgeStyle=elbowEdgeStyle;elbow=vertical;html=1;rounded=1;curved=0;sourcePerimeterSpacing=0;targetPerimeterSpacing=0;startSize=6;endSize=6;" parent="65" source="72" target="80" edge="1">
                    <mxGeometry relative="1" as="geometry">
                        <mxPoint x="-2406.4760000000006" y="100" as="sourcePoint"/>
                    </mxGeometry>
                </mxCell>
                <mxCell id="80" value="&lt;span style=&quot;text-align: left;&quot;&gt;common_layout_popup.html&lt;br&gt;(&lt;font style=&quot;font-size: 8px;&quot;&gt;레이어 팝업 셋팅 thymeleaf&lt;/font&gt;)&lt;/span&gt;" style="whiteSpace=wrap;html=1;" parent="65" vertex="1">
                    <mxGeometry x="555.348" y="220" width="174" height="40" as="geometry"/>
                </mxCell>
                <mxCell id="81" value="" style="edgeStyle=elbowEdgeStyle;elbow=vertical;html=1;rounded=1;curved=0;sourcePerimeterSpacing=0;targetPerimeterSpacing=0;startSize=6;endSize=6;" parent="65" source="72" target="82" edge="1">
                    <mxGeometry relative="1" as="geometry">
                        <mxPoint x="-2273.4760000000006" y="190" as="sourcePoint"/>
                    </mxGeometry>
                </mxCell>
                <mxCell id="82" value="&lt;span style=&quot;text-align: left;&quot;&gt;common_layout.html&lt;br&gt;(&lt;font style=&quot;font-size: 8px;&quot;&gt;메인 페이지에서 셋팅 thymeleaf&lt;/font&gt;)&lt;br&gt;&lt;/span&gt;" style="whiteSpace=wrap;html=1;" parent="65" vertex="1">
                    <mxGeometry x="769.348" y="220" width="144.5" height="40" as="geometry"/>
                </mxCell>
                <mxCell id="83" value="" style="edgeStyle=elbowEdgeStyle;elbow=vertical;html=1;rounded=1;curved=0;sourcePerimeterSpacing=0;targetPerimeterSpacing=0;startSize=6;endSize=6;" parent="65" source="74" target="84" edge="1">
                    <mxGeometry relative="1" as="geometry">
                        <mxPoint x="-1283.9510000000002" y="100" as="sourcePoint"/>
                    </mxGeometry>
                </mxCell>
                <mxCell id="84" value="searchResult.html&lt;br&gt;&lt;font style=&quot;font-size: 8px;&quot;&gt;(검색결과 페이지)&lt;/font&gt;" style="whiteSpace=wrap;html=1;" parent="65" vertex="1">
                    <mxGeometry x="953.848" y="220" width="115.5" height="40" as="geometry"/>
                </mxCell>
                <mxCell id="85" value="" style="edgeStyle=elbowEdgeStyle;elbow=vertical;html=1;rounded=1;curved=0;sourcePerimeterSpacing=0;targetPerimeterSpacing=0;startSize=6;endSize=6;" parent="65" source="74" target="86" edge="1">
                    <mxGeometry relative="1" as="geometry">
                        <mxPoint x="-1283.9510000000002" y="100" as="sourcePoint"/>
                    </mxGeometry>
                </mxCell>
                <mxCell id="86" value="&lt;div style=&quot;text-align: left;&quot;&gt;&lt;span style=&quot;background-color: initial;&quot;&gt;searchResultOpenMap.html&lt;/span&gt;&lt;/div&gt;&lt;div style=&quot;text-align: left;&quot;&gt;&lt;span style=&quot;background-color: initial;&quot;&gt;&amp;nbsp; &amp;nbsp; &amp;nbsp; &amp;nbsp; &amp;nbsp; &amp;nbsp; &amp;nbsp;(&lt;font style=&quot;font-size: 8px;&quot;&gt;검색 결과 맵 페이지&lt;/font&gt;)&lt;/span&gt;&lt;/div&gt;" style="whiteSpace=wrap;html=1;" parent="65" vertex="1">
                    <mxGeometry x="1109.348" y="220" width="180" height="40" as="geometry"/>
                </mxCell>
                <mxCell id="87" value="" style="edgeStyle=elbowEdgeStyle;elbow=vertical;html=1;rounded=1;curved=0;sourcePerimeterSpacing=0;targetPerimeterSpacing=0;startSize=6;endSize=6;" edge="1" target="88" source="78" parent="65">
                    <mxGeometry relative="1" as="geometry">
                        <mxPoint x="-634.576" y="190" as="sourcePoint"/>
                    </mxGeometry>
                </mxCell>
                <mxCell id="88" value="&lt;div style=&quot;text-align: left;&quot;&gt;ubot.html&lt;/div&gt;&lt;div style=&quot;text-align: left;&quot;&gt;(&lt;font style=&quot;font-size: 8px;&quot;&gt;퀵 페이지&lt;/font&gt;)&lt;/div&gt;" style="whiteSpace=wrap;html=1;" vertex="1" parent="65">
                    <mxGeometry x="131.628" y="310" width="100" height="40" as="geometry"/>
                </mxCell>
                <mxCell id="93" value="" style="edgeStyle=elbowEdgeStyle;elbow=vertical;html=1;rounded=1;curved=0;sourcePerimeterSpacing=0;targetPerimeterSpacing=0;startSize=6;endSize=6;" edge="1" target="94" source="69" parent="65">
                    <mxGeometry relative="1" as="geometry">
                        <mxPoint x="-369.451" y="100" as="sourcePoint"/>
                        <Array as="points">
                            <mxPoint x="323" y="195"/>
                        </Array>
                    </mxGeometry>
                </mxCell>
                <mxCell id="94" value="" style="whiteSpace=wrap;html=1;" vertex="1" parent="65">
                    <mxGeometry x="271.628" y="220" width="100" as="geometry"/>
                </mxCell>
                <mxCell id="109" value="공통" style="swimlane;fontStyle=0;childLayout=stackLayout;horizontal=1;startSize=26;fillColor=none;horizontalStack=0;resizeParent=1;resizeParentMax=0;resizeLast=0;collapsible=1;marginBottom=0;html=1;fontSize=8;" vertex="1" parent="65">
                    <mxGeometry x="251.629" y="220" width="140" height="104" as="geometry"/>
                </mxCell>
                <mxCell id="110" value="head.html" style="text;strokeColor=none;fillColor=none;align=left;verticalAlign=top;spacingLeft=4;spacingRight=4;overflow=hidden;rotatable=0;points=[[0,0.5],[1,0.5]];portConstraint=eastwest;whiteSpace=wrap;html=1;fontSize=8;" vertex="1" parent="109">
                    <mxGeometry y="26" width="140" height="26" as="geometry"/>
                </mxCell>
                <mxCell id="111" value="header..html" style="text;strokeColor=none;fillColor=none;align=left;verticalAlign=top;spacingLeft=4;spacingRight=4;overflow=hidden;rotatable=0;points=[[0,0.5],[1,0.5]];portConstraint=eastwest;whiteSpace=wrap;html=1;fontSize=8;" vertex="1" parent="109">
                    <mxGeometry y="52" width="140" height="26" as="geometry"/>
                </mxCell>
                <mxCell id="112" value="footer.html" style="text;strokeColor=none;fillColor=none;align=left;verticalAlign=top;spacingLeft=4;spacingRight=4;overflow=hidden;rotatable=0;points=[[0,0.5],[1,0.5]];portConstraint=eastwest;whiteSpace=wrap;html=1;fontSize=8;" vertex="1" parent="109">
                    <mxGeometry y="78" width="140" height="26" as="geometry"/>
                </mxCell>
                <mxCell id="117" value="" style="edgeStyle=elbowEdgeStyle;elbow=vertical;html=1;rounded=1;curved=0;sourcePerimeterSpacing=0;targetPerimeterSpacing=0;startSize=6;endSize=6;" edge="1" target="118" source="69" parent="65">
                    <mxGeometry relative="1" as="geometry">
                        <mxPoint x="91.67399999999998" y="100" as="sourcePoint"/>
                    </mxGeometry>
                </mxCell>
                <mxCell id="118" value="&lt;span style=&quot;text-align: left;&quot;&gt;modals폴더&lt;/span&gt;" style="whiteSpace=wrap;html=1;" vertex="1" parent="65">
                    <mxGeometry x="411.628" y="220" width="103.72" height="40" as="geometry"/>
                </mxCell>
                <mxCell id="119" value="" style="edgeStyle=elbowEdgeStyle;elbow=vertical;html=1;rounded=1;curved=0;sourcePerimeterSpacing=0;targetPerimeterSpacing=0;startSize=6;endSize=6;" edge="1" target="120" source="118" parent="65">
                    <mxGeometry relative="1" as="geometry">
                        <mxPoint x="343.674" y="190" as="sourcePoint"/>
                        <Array as="points">
                            <mxPoint x="463" y="290"/>
                            <mxPoint x="501.674" y="270"/>
                        </Array>
                    </mxGeometry>
                </mxCell>
                <mxCell id="120" value="" style="whiteSpace=wrap;html=1;" vertex="1" parent="65">
                    <mxGeometry x="413.488" y="310" width="100" as="geometry"/>
                </mxCell>
                <mxCell id="123" value="팝업" style="swimlane;fontStyle=0;childLayout=stackLayout;horizontal=1;startSize=26;fillColor=none;horizontalStack=0;resizeParent=1;resizeParentMax=0;resizeLast=0;collapsible=1;marginBottom=0;html=1;fontSize=8;" vertex="1" parent="65">
                    <mxGeometry x="411.62899999999996" y="310" width="290" height="366" as="geometry">
                        <mxRectangle x="411.62899999999996" y="310" width="60" height="26" as="alternateBounds"/>
                    </mxGeometry>
                </mxCell>
                <mxCell id="124" value="modal_agree.html[개인정보 수집 및 활용에 대한 동의 팝업-사전예약]" style="text;strokeColor=none;fillColor=none;align=left;verticalAlign=top;spacingLeft=4;spacingRight=4;overflow=hidden;rotatable=0;points=[[0,0.5],[1,0.5]];portConstraint=eastwest;whiteSpace=wrap;html=1;fontSize=8;" vertex="1" parent="123">
                    <mxGeometry y="26" width="290" height="26" as="geometry"/>
                </mxCell>
                <mxCell id="125" value="modal_agree2.html[광고성 정보 수신 동의 팝업-사전예약]" style="text;strokeColor=none;fillColor=none;align=left;verticalAlign=top;spacingLeft=4;spacingRight=4;overflow=hidden;rotatable=0;points=[[0,0.5],[1,0.5]];portConstraint=eastwest;whiteSpace=wrap;html=1;fontSize=8;" vertex="1" parent="123">
                    <mxGeometry y="52" width="290" height="26" as="geometry"/>
                </mxCell>
                <mxCell id="126" value="modal_confirm_reservation.html[예약 확인하기]" style="text;strokeColor=none;fillColor=none;align=left;verticalAlign=top;spacingLeft=4;spacingRight=4;overflow=hidden;rotatable=0;points=[[0,0.5],[1,0.5]];portConstraint=eastwest;whiteSpace=wrap;html=1;fontSize=8;" vertex="1" parent="123">
                    <mxGeometry y="78" width="290" height="32" as="geometry"/>
                </mxCell>
                <mxCell id="147" value="modal_confirm_reservation2.html[예약 확인하기]" style="text;strokeColor=none;fillColor=none;align=left;verticalAlign=top;spacingLeft=4;spacingRight=4;overflow=hidden;rotatable=0;points=[[0,0.5],[1,0.5]];portConstraint=eastwest;whiteSpace=wrap;html=1;fontSize=8;" vertex="1" parent="123">
                    <mxGeometry y="110" width="290" height="32" as="geometry"/>
                </mxCell>
                <mxCell id="148" value="modal_event_agree.html[개인정보 수집 및 활용에 대한 동의 팝업-이벤트]" style="text;strokeColor=none;fillColor=none;align=left;verticalAlign=top;spacingLeft=4;spacingRight=4;overflow=hidden;rotatable=0;points=[[0,0.5],[1,0.5]];portConstraint=eastwest;whiteSpace=wrap;html=1;fontSize=8;" vertex="1" parent="123">
                    <mxGeometry y="142" width="290" height="32" as="geometry"/>
                </mxCell>
                <mxCell id="149" value="modal_event_agree2.html[광고성 정보 수신 동의 팝업-이벤트]" style="text;strokeColor=none;fillColor=none;align=left;verticalAlign=top;spacingLeft=4;spacingRight=4;overflow=hidden;rotatable=0;points=[[0,0.5],[1,0.5]];portConstraint=eastwest;whiteSpace=wrap;html=1;fontSize=8;" vertex="1" parent="123">
                    <mxGeometry y="174" width="290" height="32" as="geometry"/>
                </mxCell>
                <mxCell id="150" value="modal_finish.html[예약완료]" style="text;strokeColor=none;fillColor=none;align=left;verticalAlign=top;spacingLeft=4;spacingRight=4;overflow=hidden;rotatable=0;points=[[0,0.5],[1,0.5]];portConstraint=eastwest;whiteSpace=wrap;html=1;fontSize=8;" vertex="1" parent="123">
                    <mxGeometry y="206" width="290" height="32" as="geometry"/>
                </mxCell>
                <mxCell id="151" value="modal_preorder.html[사전예약]" style="text;strokeColor=none;fillColor=none;align=left;verticalAlign=top;spacingLeft=4;spacingRight=4;overflow=hidden;rotatable=0;points=[[0,0.5],[1,0.5]];portConstraint=eastwest;whiteSpace=wrap;html=1;fontSize=8;" vertex="1" parent="123">
                    <mxGeometry y="238" width="290" height="32" as="geometry"/>
                </mxCell>
                <mxCell id="152" value="modal_s23_event.html[이벤]" style="text;strokeColor=none;fillColor=none;align=left;verticalAlign=top;spacingLeft=4;spacingRight=4;overflow=hidden;rotatable=0;points=[[0,0.5],[1,0.5]];portConstraint=eastwest;whiteSpace=wrap;html=1;fontSize=8;" vertex="1" parent="123">
                    <mxGeometry y="270" width="290" height="32" as="geometry"/>
                </mxCell>
                <mxCell id="153" value="modal_store_search.html[가까운 매장 찾기]" style="text;strokeColor=none;fillColor=none;align=left;verticalAlign=top;spacingLeft=4;spacingRight=4;overflow=hidden;rotatable=0;points=[[0,0.5],[1,0.5]];portConstraint=eastwest;whiteSpace=wrap;html=1;fontSize=8;" vertex="1" parent="123">
                    <mxGeometry y="302" width="290" height="32" as="geometry"/>
                </mxCell>
                <mxCell id="154" value="modal_preorder_sub.html[사전예약 상단 공통]" style="text;strokeColor=none;fillColor=none;align=left;verticalAlign=top;spacingLeft=4;spacingRight=4;overflow=hidden;rotatable=0;points=[[0,0.5],[1,0.5]];portConstraint=eastwest;whiteSpace=wrap;html=1;fontSize=8;" vertex="1" parent="123">
                    <mxGeometry y="334" width="290" height="32" as="geometry"/>
                </mxCell>
            </root>
        </mxGraphModel>
    </diagram>
</mxfile>